<?xml version="1.0" encoding="UTF-8" standalone="no"?>
<!-- Created with Inkscape (http://www.inkscape.org/) -->

<svg
   xmlns:dc="http://purl.org/dc/elements/1.1/"
   xmlns:cc="http://creativecommons.org/ns#"
   xmlns:rdf="http://www.w3.org/1999/02/22-rdf-syntax-ns#"
   xmlns:svg="http://www.w3.org/2000/svg"
   xmlns="http://www.w3.org/2000/svg"
   xmlns:sodipodi="http://sodipodi.sourceforge.net/DTD/sodipodi-0.dtd"
   xmlns:inkscape="http://www.inkscape.org/namespaces/inkscape"
   width="210mm"
   height="210mm"
   viewBox="0 0 744.09449 744.09448"
   id="svg3445"
   version="1.1"
   inkscape:version="0.91 r13725"
   sodipodi:docname="logo_ensea.svg">
  <defs
     id="defs3447" />
  <sodipodi:namedview
     id="base"
     pagecolor="#ffffff"
     bordercolor="#666666"
     borderopacity="1.0"
     inkscape:pageopacity="0.0"
     inkscape:pageshadow="2"
     inkscape:zoom="0.35"
     inkscape:cx="233.57143"
     inkscape:cy="520"
     inkscape:document-units="px"
     inkscape:current-layer="layer1"
     showgrid="false"
     inkscape:window-width="1920"
     inkscape:window-height="1023"
     inkscape:window-x="0"
     inkscape:window-y="0"
     inkscape:window-maximized="1" />
  <metadata
     id="metadata3450">
    <rdf:RDF>
      <cc:Work
         rdf:about="">
        <dc:format>image/svg+xml</dc:format>
        <dc:type
           rdf:resource="http://purl.org/dc/dcmitype/StillImage" />
        <dc:title></dc:title>
      </cc:Work>
    </rdf:RDF>
  </metadata>
  <g
     inkscape:label="Calque 1"
     inkscape:groupmode="layer"
     id="layer1"
     transform="translate(0,-308.26772)">
    <path
       inkscape:connector-curvature="0"
       d="m 156.48883,1008.7667 c -0.39104,-1.6945 -3.54547,-3.0371 -4.84896,-4.132 -4.82288,-4.0539 -15.9807,-12.94362 -16.08488,-19.61745 3.21961,1.05582 5.1618,4.10597 7.36458,6.361 5.18786,5.24 10.80588,10.45395 14.26011,17.21905 -0.22107,0.062 -0.44319,0.1178 -0.69033,0.1699 m -25.27443,-38.19203 c -10.42787,-13.50408 -18.62678,-32.36548 -19.77385,-51.05743 -0.26069,-3.79314 -0.97709,-6.79115 0.0209,-10.29752 3.11532,3.08925 3.37602,8.58995 4.52308,13.11304 1.05583,3.4412 2.05951,6.85632 3.08926,10.28448 1.22528,3.37602 2.42448,6.73901 3.67583,10.11503 3.28477,11.43155 7.45592,22.45902 12.60468,32.53494 -1.32955,0.36498 -3.38906,-3.70189 -4.14508,-4.69254 m 604.80323,-95.16731 c -3.92348,1.02923 -7.19522,3.01105 -10.58428,4.6013 -10.91015,5.14876 -20.80359,10.11503 -31.12718,15.55055 -13.39981,6.56956 -26.86479,13.08698 -40.2646,19.63046 -8.31622,3.97563 -20.21702,6.75204 -26.82568,12.13543 -1.51204,0.62567 -3.02408,1.23831 -4.51005,1.86398 -3.4803,0.926 -7.42986,2.04647 -9.88041,3.93652 -2.58089,0.62567 -5.22696,1.23831 -7.80786,1.82488 -4.71861,2.24199 -9.47632,4.47094 -14.19493,6.6999 -2.72428,1.35562 -5.44856,2.73732 -8.17284,4.11901 -1.77274,0.48281 -3.61065,0.96458 -5.44856,1.4599 -0.0209,-0.18249 -0.0938,-0.39105 -0.14391,-0.61316 -0.23463,0.0521 -0.50784,0.13035 -0.76957,0.20856 -0.0521,-0.195 -0.1168,-0.39105 -0.13035,-0.61212 0.24818,-0.0834 0.48281,-0.1439 0.75602,-0.19604 -0.13035,-0.61316 10.08896,-5.09662 11.82259,-5.94389 13.9212,-6.53045 27.82937,-13.12607 41.75057,-19.68259 3.16746,-1.55115 5.67015,-4.02777 8.82458,-5.73533 14.99006,-7.8209 29.94101,-15.6418 44.89196,-23.43663 -0.0834,-0.40356 -0.16997,-0.83423 -0.26069,-1.22527 -1.49901,0.62567 -3.03712,1.22527 -4.5622,1.86398 -0.24818,-1.10796 3.21961,-2.42448 4.31453,-3.01105 17.27116,-9.38508 35.35047,-17.92289 52.41307,-27.17762 -0.65175,-2.80249 -7.66449,0.0626 -9.59364,0.99065 -20.16489,9.71095 -40.32977,19.461 -60.49466,29.19802 -7.14309,3.53244 -14.28617,7.05184 -21.40319,10.59732 -2.5809,0.69032 -5.01841,1.65542 -6.75205,3.10229 -3.96259,1.06885 -7.75572,2.12468 -9.29383,-0.79565 -2.98498,1.47294 -5.95692,2.9198 -8.92886,4.36667 -14.76847,3.94956 -27.16459,10.9623 -39.99087,17.04956 -4.44488,2.13771 -8.90279,4.23632 -13.34767,6.34797 -3.08925,0.80816 -6.86935,2.00736 -9.08527,3.72796 -2.26807,0.83423 -4.5622,1.65542 -6.85633,2.47662 -1.73363,0.69032 -3.54547,1.38169 -5.30517,2.0986 -2.47662,0.63923 -5.93085,1.39473 -7.65145,2.68518 -2.03343,0.76958 -4.06687,1.49901 -6.1003,2.28109 -2.84159,0.78209 -6.24369,1.40777 -8.44657,2.89374 -2.90677,0.80816 -7.05185,1.55114 -9.18956,3.11532 -2.81552,0.75602 -6.26975,1.43383 -8.43354,2.90677 -2.45054,0.65174 -5.90478,1.4208 -7.67751,2.72428 -1.7206,0.69033 -3.50637,1.35562 -5.30518,2.04647 -3.23264,0.8603 -7.66448,1.61632 -9.97165,3.33692 -2.52875,0.66425 -5.86567,1.39472 -7.65144,2.69821 -15.19862,4.06686 -29.77156,7.63841 -44.10988,9.5806 -20.97304,2.78945 -114.26334,13.29553 -122.55353,0.36497 0.52139,-0.13034 1.02923,-0.27425 1.53811,-0.39104 0.24818,0.97709 4.00173,1.09492 5.20094,1.34259 15.01613,2.99801 38.15295,1.78577 54.8245,0.20855 4.01473,-0.39104 6.9606,-1.68149 10.97533,-2.51572 3.741,-0.49532 7.5211,-0.96458 11.28817,-1.4599 -0.0417,-0.18249 -0.0939,-0.4046 -0.14286,-0.61316 0.26069,-0.0626 0.50783,-0.13035 0.78209,-0.20856 -0.0521,-0.18248 -0.10428,-0.40355 -0.14391,-0.5996 -5.77443,0.20856 -11.52279,0.44319 -17.24508,0.66426 -13.08697,1.04278 -26.96907,2.21592 -39.32609,0.99064 -2.72428,-0.5996 -5.48767,-1.22527 -8.23802,-1.85094 -8.981,-1.23831 -17.71438,-2.42448 -26.52592,-4.15811 -12.09633,-2.34627 -24.87046,-3.64976 -36.56271,-7.10399 -9.5806,-2.86766 -17.7404,-7.24736 -26.74747,-11.05354 -8.0816,-3.40209 -15.57663,-6.49134 -21.89852,-11.50975 -7.83394,-6.21762 -13.8821,-14.01245 -19.03086,-22.0419 -4.51005,-6.94757 -9.12438,-13.51713 -12.12239,-21.59872 -5.18786,-14.06459 -5.70926,-28.82002 -5.5398,-42.94977 0.11783,-13.56926 1.30348,-26.36947 4.96627,-39.49555 4.10597,-14.79453 12.73503,-28.83305 21.71603,-43.09315 5.5007,-8.77244 10.51911,-17.38847 17.57095,-25.95235 1.22528,-1.48597 2.51572,-2.94588 3.79314,-4.40578 2.29413,-0.4046 4.61433,-0.7435 6.92149,-1.21224 5.70926,-1.1601 10.85802,-3.7801 16.39782,-4.71861 18.37912,-3.2587 37.29266,-5.07055 54.45953,-11.52279 1.9813,-0.8603 3.96259,-1.7988 5.95692,-2.72428 1.73363,-1.32955 2.42452,-3.29781 4.52313,-3.92348 4.88806,-1.53811 17.6622,1.40776 19.83901,-6.24369 -0.0208,-0.3389 -0.0208,-0.72995 -0.0521,-1.08189 5.8787,-0.32535 11.01443,-4.84896 16.29354,-7.18219 5.63104,-2.51572 12.13542,-3.1414 17.49274,-6.38707 1.52508,-1.47293 2.99801,-2.97194 4.51005,-4.43184 2.97194,-2.47662 6.73901,-3.71493 10.45394,-4.24936 0.0417,0.36498 0.0417,0.7164 0.073,1.09493 -0.24714,0.0104 -0.49532,0.0208 -0.72995,0.0417 0.0626,1.79881 -1.12099,1.1601 -2.0986,1.1992 0.31283,1.06886 0.57353,2.15075 0.86029,3.20657 0.0417,0.75602 0.0626,1.4599 0.0939,2.16379 7.36469,-2.80249 14.69026,-5.64409 22.04191,-8.48568 25.65255,-9.29384 50.22321,-18.61374 74.11605,-32.23514 6.60866,-4.3797 13.21732,-8.74637 19.81295,-13.11304 11.06657,-6.00906 22.43295,-12.03115 33.12151,-19.00479 13.97334,-9.11135 32.16996,-12.27881 40.94241,-33.19972 1.38169,-0.0939 -2.85463,-4.82288 -4.09294,-5.33124 -5.87871,-2.39841 -16.86707,1.34259 -21.19464,5.60498 -3.23264,0.18248 -6.77811,0.4046 -9.25473,2.68517 -1.4208,0.4557 -2.82856,0.8603 -4.27542,1.30348 -2.15075,0.48177 -4.26239,0.95207 -6.41314,1.45991 -3.46727,0.19604 -7.33861,1.40776 -9.95861,3.80617 -5.00538,0.63922 -10.02379,1.26438 -15.06827,1.90308 0.0417,0.36498 0.0417,0.69033 0.0626,1.09493 -0.22212,0 -0.46926,0 -0.71744,0.0208 0.0104,0.74247 0.0521,1.44687 0.0938,2.16379 1.22527,-0.0521 2.39841,-0.13035 3.58458,-0.19605 0.0209,0.36498 0.0626,0.72995 0.0626,1.09493 -2.94588,0.15642 -16.26747,6.25672 -18.36608,8.60299 -3.66279,0.20855 -7.84697,1.29045 -10.63643,3.85831 -4.19721,0.20856 -8.82458,2.04647 -12.04418,5.00537 -1.4208,0.44319 -2.85463,0.87386 -4.27543,1.31652 -1.87701,0.10428 -3.75403,0.54746 -4.9402,2.43752 1.47294,-0.0834 -2.12467,1.68149 -2.77642,2.3202 -5.04448,0.28676 -8.981,3.38905 -13.59533,4.48398 -3.03711,0.75602 -6.1394,1.4599 -9.18955,2.20288 -1.4208,0.46926 -2.86767,0.87386 -4.27543,1.32956 -2.77642,0.15642 -5.70926,0.65174 -7.83393,2.60696 -5.18787,0.27426 -12.33095,1.56418 -16.34568,5.24001 -1.43383,0.45674 -2.85463,0.88636 -4.3015,1.31651 -1.86398,0.45674 -3.7801,0.926 -5.68318,1.39473 -1.65543,0.4557 -3.31085,0.89888 -4.99235,1.35562 -2.13771,0.50784 -4.27542,0.96458 -6.42617,1.44687 -6.02209,0.32535 -11.6401,0.36498 -17.34936,-0.54746 -3.741,-0.63923 -10.01075,-4.84896 -13.84299,-2.09861 -2.86766,0.15642 -6.17851,-0.0626 -8.57692,1.55114 -2.15075,0.50888 -4.28846,0.9771 -6.45224,1.44687 -0.13035,0.0209 -0.30033,0.0834 -0.42963,0.10428 9.64577,-6.32189 19.30459,-12.64379 28.9634,-18.97872 4.83592,-2.72428 9.63274,-5.44856 14.44259,-8.1598 7.07791,-4.51005 14.16886,-9.00707 21.25981,-13.51712 4.9402,-2.89374 9.8413,-5.77443 14.7815,-8.6812 2.25503,-1.9813 4.48398,-4.01473 6.72598,-6.02209 7.62537,-5.5007 15.1204,-12.33096 22.25045,-18.43126 4.40578,-3.80617 11.45762,-5.91781 14.4817,-10.80587 -1.02923,0.27425 -2.0595,0.56102 -3.11532,0.83423 -0.52139,0.14286 -1.05582,0.27425 -1.57722,0.40355 -0.073,-0.39104 -0.16893,-0.80815 -0.26069,-1.22527 1.99433,-0.96458 3.96259,-1.92915 5.94388,-2.89373 -0.0939,-0.40356 -0.19604,-0.82068 -0.30032,-1.22528 -7.06488,1.89005 -14.03852,7.02578 -20.12578,10.21931 -10.42787,5.43553 -19.91723,11.09264 -29.94101,16.7628 -6.79115,3.70189 -13.63444,7.39075 -20.39952,11.06657 -10.48,6.19154 -20.97304,12.38309 -31.41394,18.5616 0.0417,0.19604 0.0938,0.39105 0.11783,0.61316 -0.50888,0.1439 -1.03027,0.27425 -1.53811,0.41711 -0.0521,-0.18248 -0.0939,-0.40355 -0.15642,-0.62567 1.74667,-1.1992 3.45424,-2.39841 5.1618,-3.62368 3.87134,-2.3202 7.72965,-4.67951 11.58796,-7.03881 15.81126,-10.12807 34.425,-17.62309 49.46719,-28.57235 0.27321,-0.0521 0.49533,-0.10428 0.75602,-0.19605 -0.19604,-0.99064 -0.88636,-0.74246 -1.82487,-0.83423 -0.0521,-0.15641 -0.0938,-0.37749 -0.13035,-0.58709 3.53244,-0.9385 5.86567,-4.14507 8.70727,-5.89174 6.49134,-4.06687 15.09433,-6.80418 21.20767,-11.24906 0.55998,-0.15642 1.06886,-0.28677 1.57721,-0.43067 -0.0939,-0.40356 -0.20855,-0.82067 -0.31283,-1.22528 -1.01672,0.27426 -2.05951,0.54747 -3.07622,0.83423 -1.48597,0.83423 -2.94587,1.65543 -4.43185,2.48966 -1.48597,0.62567 -3.01104,1.23831 -4.49701,1.85094 -5.95692,1.59025 -10.03682,4.3406 -15.21165,6.33493 -15.21165,5.81354 -27.71206,13.6214 -40.79903,21.35106 -4.78378,2.81552 -9.65881,4.58826 -14.46866,7.48199 -5.91782,1.57722 -11.48369,5.82657 -15.98071,9.04617 -4.80985,3.41513 -9.8804,6.50439 -15.3811,9.12439 0.0521,0.20855 0.10428,0.39104 0.14391,0.62567 -1.9813,0.50784 0.0938,-2.00736 -2.76339,-1.23831 0.24818,1.05582 -4.3797,3.05015 -5.57891,3.79314 -18.74413,11.49672 -38.94812,21.96369 -55.88036,35.23315 -2.8416,2.22895 -5.61802,4.48398 -8.36837,6.75204 -2.77642,0.0521 -5.60498,0.24714 -7.61234,1.61632 -5.27911,0.28677 -10.54518,0.57353 -15.83732,0.87281 -0.0104,-0.35142 -0.0521,-0.72995 -0.0626,-1.06885 -1.09492,0.0521 -0.75602,-0.67781 -0.82067,-2.16379 4.44488,-0.23462 12.73503,-0.62567 15.6418,-5.20089 -3.10229,0.16997 -14.89882,1.39472 -17.17991,3.10229 -3.53244,0.20855 -9.31991,-1.78578 -12.23971,0.67781 -10.4018,0.57353 -20.39951,0.52139 -30.31902,0.13035 -3.29781,-0.14287 -7.58627,-2.76339 -10.88408,-1.13403 -4.80986,-0.0626 -9.64578,-0.18249 -14.46867,-0.2607 -9.35901,0.28677 -18.45732,1.00316 -27.37315,-0.0209 -5.09662,-0.67781 -10.2193,-1.34258 -15.28985,-2.0204 -0.0209,-0.3389 -0.0417,-0.71639 -0.0521,-1.08189 -0.22212,0.0104 -0.46926,0.0417 -0.71744,0.0417 -0.0626,-1.56418 0.78209,-3.27175 1.22527,-4.41881 0.95207,-0.0521 0.74351,0.28676 0.6653,-1.121 -1.1992,0.073 -2.73731,-2.21592 -3.83224,-2.81552 -1.70756,-0.5214 -3.4412,-1.06886 -5.1618,-1.62936 -5.5007,-1.05582 -11.0405,-2.13771 -16.56727,-3.23264 -10.949259,-2.6591 -21.377125,-7.09094 -31.192354,-13.84299 -3.88438,-2.71124 -9.619706,-6.4392 -11.301199,-13.25642 -1.955225,-7.89911 0.664255,-15.61573 1.446866,-22.64151 0.312836,-3.5194 0.586046,-7.06487 0.899925,-10.61035 2.411444,-6.11334 4.809853,-12.22667 7.221297,-18.32697 5.748361,-15.40718 10.506075,-29.99315 19.213343,-43.22351 5.44856,-6.90846 10.89712,-13.88209 16.371752,-20.80359 1.7597,-1.56418 3.50637,-3.15443 5.30517,-4.75771 2.20289,-3.33692 4.41881,-6.71294 6.63473,-10.06289 2.91981,-3.49334 5.86568,-6.97364 8.78549,-10.46698 8.29015,-10.03682 17.88379,-17.19294 26.82568,-25.62648 20.37344,-19.31762 41.90699,-34.92031 63.79247,-50.92709 13.41284,-8.77244 26.78658,-17.59702 40.14728,-26.3825 5.43553,-2.81552 10.83195,-5.65711 16.21534,-8.49871 17.64916,-10.40179 36.14559,-18.22269 54.44632,-26.59106 5.55305,-2.58089 18.53574,-3.15443 22.49833,-7.5602 0.39105,-0.5996 0.79565,-1.1992 1.14707,-1.78577 2.12468,-6.81722 -1.23831,-12.10936 -5.31821,-12.85235 0.0208,0.36498 0.0208,0.70389 0.0208,1.06886 -0.91244,0.42963 -1.86398,0.82067 -2.80249,1.23831 -3.2587,0.19604 -7.44289,-0.33891 -10.04985,1.64239 -1.89005,0.48281 -3.79314,0.92599 -5.70926,1.40776 -1.39473,0.44318 -2.82856,0.87281 -4.27542,1.31652 -2.39841,0.13035 -5.25304,0.87281 -7.07792,2.56786 -4.2885,0.22107 -16.69766,4.71861 -19.87816,7.62538 -1.38169,0.42963 -2.84159,0.84778 -4.24935,1.30348 -6.29583,0.35142 -12.17454,4.88806 -17.59703,7.92518 -7.79483,4.19721 -15.58966,8.35533 -23.39752,12.55254 -47.36858,24.76618 -91.72612,56.84491 -134.01112,94.88055 -22.393841,20.13881 -45.100519,43.28868 -64.131374,71.40481 -2.502688,3.741 -5.018411,7.44289 -7.534133,11.17085 -1.94219,4.13204 -3.91045,8.25105 -5.87871,12.35702 -16.058914,28.75484 -35.4417093,71.0268 -26.747476,112.56882 3.780101,18.20966 14.546873,36.57574 24.818321,48.18977 5.683187,6.37403 10.49304,12.51344 16.515133,17.58399 6.465276,5.46159 14.273141,7.53413 21.298916,11.05354 29.484793,14.65115 61.759043,16.11105 96.066723,14.55991 -0.6653,0.70388 -1.34259,1.38169 -2.04647,2.07253 -3.59762,4.27543 -7.2213,8.52478 -10.87105,12.78717 -4.27543,4.62737 -9.5024,8.45961 -13.71265,13.30857 -3.72796,4.9793 -7.45592,9.93254 -11.19692,14.88578 -3.87134,4.84895 -9.72398,10.36269 -14.33832,15.18558 0.15642,0.61316 0.30032,1.22527 0.4557,1.83791 0.50784,-0.13035 1.02923,-0.27425 1.55115,-0.41712 -0.28677,-1.17313 2.86766,-2.97194 4.09294,-3.71492 0.0521,0.22211 0.10428,0.42962 0.15641,0.62567 -2.12467,0.57353 -3.84527,4.56219 -3.53243,6.16547 -1.31653,0.35142 -1.81185,2.90677 -2.39842,3.92349 0.24819,1.10796 1.55115,-0.24818 2.33324,-0.63923 0.10428,0.42963 0.19604,0.82067 0.30032,1.21224 -1.17313,0.32535 -0.8603,0.63923 -1.02923,1.4208 -2.54179,10.92319 -10.45404,21.58568 -13.50409,32.45673 -1.92926,6.67383 -4.31463,13.19125 -5.65722,19.96936 -2.528652,12.73503 -1.746666,25.67862 -1.642388,38.72649 0.09385,19.21334 2.059608,40.2646 10.297518,58.63068 7.66448,17.21901 17.93604,29.39354 30.30609,42.91064 5.40946,5.9179 10.50608,11.1057 17.57085,15.8765 8.31633,5.6441 18.13156,9.5545 28.07703,13.2173 10.063,3.6888 19.89116,7.5993 30.35813,10.1541 12.72199,3.1936 26.23922,4.6274 39.45644,6.6217 5.8005,1.0032 11.57493,2.0204 17.34936,3.0111 5.30517,-0.3254 10.62339,-0.6257 15.92856,-0.9385 11.54886,-0.3515 23.07166,-1.6815 35.02464,-2.9589 6.68687,-0.73 12.5004,-0.8343 19.44797,-2.1247 -0.0939,-0.3911 -0.19605,-0.8082 -0.30032,-1.2253 -4.07991,0.3003 -8.19891,0.5735 -12.29185,0.8864 -9.50239,0.8478 -23.91896,2.9589 -32.58712,1.9813 -0.23463,0.062 -0.50888,0.1303 -0.79565,0.196 -0.0521,-0.196 -0.0939,-0.391 -0.13035,-0.6121 13.39981,-3.5716 26.12185,-2.1247 39.0133,-3.4412 5.00537,-0.8342 10.04985,-1.6945 15.09433,-2.5418 7.31254,-0.7174 14.58598,-1.4599 21.88549,-2.2159 3.40209,-0.6914 6.739,-1.3687 10.11503,-2.0595 11.6401,-1.1732 23.26717,-2.9589 35.3635,-5.0706 3.79313,-0.4432 7.53413,-0.9124 11.31423,-1.3686 35.24619,-7.104 71.31357,-19.5523 101.7108,-33.25191 20.96001,-9.45025 42.25893,-17.20598 61.96759,-27.69902 10.7407,-6.07423 21.49444,-12.17453 32.23514,-18.24876 2.46359,-1.74667 4.92717,-3.49334 7.37772,-5.25304 5.74836,-3.34995 11.71831,-6.13941 17.25812,-9.78916 2.98497,-2.71124 5.99602,-5.39642 8.9811,-8.09463 3.40209,-2.20289 6.72597,-4.40577 10.07593,-6.59562 1.25134,-0.36498 0.52139,-1.22528 0.32534,-2.07254 -0.49532,0.14286 -1.05582,0.28676 -1.56417,0.42963 0.0626,0.20855 0.10427,0.40355 0.16893,0.61315 -7.40379,1.9813 -13.32171,7.83394 -19.77395,11.14479 0.0521,0.22211 0.0938,0.41711 0.15642,0.63922 -1.65542,0.0104 -3.31085,0.0104 -4.99234,0.0104 -0.22211,0.0626 -0.48281,0.14286 -0.78209,0.20856 -0.0417,-0.18249 -0.0521,-0.40356 -0.10428,-0.63923 13.8821,-7.80786 27.77733,-15.6809 41.6855,-23.51484 -0.0939,-0.42963 -0.195,-0.84674 -0.31284,-1.23831 -2.48965,1.121 -4.96627,2.21593 -7.48199,3.31085 -0.0417,-0.18249 -0.10428,-0.40356 -0.15642,-0.62567 -0.24714,0.073 -0.50784,0.15642 -0.78209,0.23463 -0.33891,-1.55115 1.95523,-2.75035 3.31085,-3.54548 12.73503,-7.72965 26.59106,-14.16886 39.7432,-21.55961 5.74836,-3.24567 12.03115,-6.03513 16.58031,-10.42787 0.24714,-0.0626 0.50784,-0.13035 0.78209,-0.20855 -0.0417,-0.18249 -0.0938,-0.40461 -0.15642,-0.61316"
       id="path3700"
       style="fill:#ffffff;fill-opacity:1;fill-rule:nonzero;stroke:none" />
  </g>
</svg>
